
<svg xmlns="http://www.w3.org/2000/svg" width="143" height="24" fill="none"><g clip-path="url(#a)"><mask id="b" width="54" height="22" x="0" y="1" maskUnits="userSpaceOnUse" style="mask-type:luminance"><path fill="#fff" fill-rule="evenodd" d="M0 1.86h53.543v20.502H0z" clip-rule="evenodd"/></mask><g fill="#2CA3E1" fill-rule="evenodd" clip-rule="evenodd" mask="url(#b)"><path d="M5.347 17.75h4.295c1.7 0 2.882-.59 2.882-2.25 0-1.77-1.268-2.361-2.882-2.361H5.347zm0-7.986h4.15c.923 0 2.192-.478 2.192-1.912 0-1.462-1.067-1.94-2.191-1.94h-4.15zM-.014 1.863h9.627c3.546-.057 7.436.843 7.436 5.033 0 1.8-1.095 3.262-2.709 4.05 2.191.617 3.546 2.474 3.546 4.751 0 4.78-3.603 6.243-8.014 6.243H-.014zM19.784 1.862h5.362V17.44h9.598v4.5h-14.96zM53.543 13.644c0 5.821-2.739 8.717-8.965 8.717s-8.964-2.896-8.964-8.717V1.862h5.362v12.092c0 2.586.98 3.908 3.602 3.908 2.623 0 3.604-1.322 3.604-3.908V1.861h5.361z"/></g><path fill="#2CA3E1" fill-rule="evenodd" d="M56.197 1.862h16.401v4.19h-11.04v3.515h10.09v4.05h-10.09v3.823h11.329v4.5h-16.69z" clip-rule="evenodd"/><path fill="#0090DA" fill-rule="evenodd" d="M82.83 9.54c-2.766 0-4.179 2.052-4.179 5.145 0 2.924 1.528 5.117 4.18 5.117 2.997 0 4.122-2.587 4.122-5.117 0-2.643-1.413-5.146-4.123-5.146m-7.35-7.678h3.286v7.424h.058c.894-1.406 2.768-2.278 4.439-2.278 4.698 0 6.975 3.487 6.975 7.733 0 3.908-2.017 7.592-6.428 7.592-2.017 0-4.179-.478-5.16-2.39h-.057v1.996h-3.112zM91.852 21.94h3.286V7.401h-3.286zM97.43 1.862h3.285V13.28l5.938-5.877h4.035l-5.707 5.343 6.255 9.195h-4.006l-4.554-7.058-1.961 1.855v5.203h-3.286z" clip-rule="evenodd"/><path fill="#0090DA" fill-rule="evenodd" d="M121.094 13.391c-.116-2.024-1.528-3.852-3.748-3.852-2.277 0-3.834 1.687-3.92 3.852zm-7.668 2.11c0 2.277 1.268 4.301 4.007 4.301 1.902 0 3.055-.815 3.632-2.418h3.113c-.721 3.178-3.488 4.95-6.745 4.95-4.67 0-7.293-3.178-7.293-7.649 0-4.133 2.767-7.676 7.206-7.676 4.699 0 7.581 4.133 7.033 8.492zM128.218 17.235c.172 1.855 1.613 2.53 3.371 2.53 1.24 0 3.402-.253 3.316-1.912-.087-1.687-2.479-1.884-4.871-2.418-2.422-.507-4.785-1.35-4.785-4.302 0-3.177 3.516-4.162 6.226-4.162 3.055 0 5.822 1.237 6.226 4.471h-3.43c-.289-1.518-1.586-1.94-3.027-1.94-.951 0-2.709.225-2.709 1.49 0 1.575 2.421 1.8 4.842 2.334 2.392.534 4.814 1.378 4.814 4.246 0 3.459-3.575 4.724-6.659 4.724-3.747 0-6.543-1.63-6.6-5.061z" clip-rule="evenodd"/><path fill="#EA8735" fill-rule="evenodd" d="M95.42 3.508c0 1.036-.862 1.876-1.925 1.876s-1.925-.84-1.925-1.876.862-1.876 1.925-1.876 1.925.84 1.925 1.876" clip-rule="evenodd"/><path fill="#0090DA" fill-rule="evenodd" d="M139.292 21.594a.4.4 0 0 0 .074.195q.102.117.348.117.147 0 .239-.03.174-.06.174-.221a.16.16 0 0 0-.085-.146 1 1 0 0 0-.271-.09l-.211-.045q-.312-.066-.429-.145-.197-.133-.197-.412a.54.54 0 0 1 .193-.425q.193-.17.568-.17.313 0 .532.16a.56.56 0 0 1 .231.463h-.392a.27.27 0 0 0-.157-.244.55.55 0 0 0-.243-.048.47.47 0 0 0-.258.062.2.2 0 0 0-.096.173q0 .102.094.152.061.035.26.08l.343.078q.224.052.337.138.175.135.175.389a.54.54 0 0 1-.207.433q-.206.172-.585.172-.386 0-.606-.17a.56.56 0 0 1-.221-.466zM142.102 20.278h.588v1.904h-.381v-1.288l.002-.155.001-.155-.37 1.598h-.396l-.368-1.598.002.155.001.155v1.288h-.381v-1.904h.594l.356 1.497z" clip-rule="evenodd"/></g><defs><clipPath id="a"><path fill="#fff" d="M0 .571h142.628v22.857H0z"/></clipPath></defs></svg>