<svg xmlns="http://www.w3.org/2000/svg" viewBox="26.9 9.14 83.98 74.77"><title>boston_bikes_logo</title><g id="Layer_7" data-name="Layer 7"><polygon points="73.17 71.95 65.97 71.95 65.97 45.05 73.17 45.54 73.17 71.95" fill="#3e8ec7"></polygon><circle cx="44.22" cy="66.59" r="17.32" fill="#3e8ec7"></circle><circle cx="93.56" cy="66.59" r="17.32" fill="#3e8ec7"></circle><polyline points="73.17 71.95 65.97 71.95 65.97 45.05" fill="#3e8ec7"></polyline><rect x="57.34" y="30.93" width="7.21" height="23.95" transform="translate(-6.08 75.52) rotate(-61.09)" fill="#3e8ec7"></rect><polygon points="63.02 41.7 48.72 40.27 48.72 36.83 65.97 19.58 75.23 28.75 63.02 41.7" fill="#3e8ec7"></polygon><polygon points="77.79 36.4 72.48 38.69 69.92 30.53 75.23 28.75 77.79 36.4" fill="#3e8ec7"></polygon><polygon points="86.86 33.72 86.86 38.69 72.48 38.69 72.39 33.72 86.86 33.72" fill="#3e8ec7"></polygon><circle cx="77.78" cy="18.16" r="6.6" fill="#3e8ec7"></circle><path d="M71.25,12.88c.32-.39.64-.79,1-1.15A4.87,4.87,0,0,0,69.1,9.29c-4.42-1.27-7.85,6.13-8.55,6.58S59,14.93,59,14.93a3.16,3.16,0,0,0,2,3.79c4,1,6.24-4.06,7.72-5.57C70,11.87,71,12.62,71.25,12.88Z" fill="#3e8ec7"></path><rect x="71.42" y="12.61" width="1.96" height="1.04" rx="0.52" transform="matrix(0.66, -0.75, 0.75, 0.66, 14.64, 58.71)" fill="#3e8ec7"></rect></g></svg>